<?xml version="1.0" standalone="no"?>
<!DOCTYPE svg PUBLIC "-//W3C//DTD SVG 1.1//EN" "http://www.w3.org/Graphics/SVG/1.1/DTD/svg11.dtd" >
<!--
2013-9-30: Created.
-->
<svg>
<metadata>
Created by iconfont
</metadata>
<defs>

<font id="iconfont" horiz-adv-x="1024" >
  <font-face
    font-family="iconfont"
    font-weight="500"
    font-stretch="normal"
    units-per-em="1024"
    ascent="896"
    descent="-128"
  />
    <missing-glyph />
    
    <glyph glyph-name="wifi" unicode="&#58953;" d="M501.86517547 868.43806613c-260.27015467 0-471.26333973-210.99427733-471.26333974-471.2655232 0-260.27342933 210.99318507-471.2655232 471.26333974-471.2655232 260.27342933 0 471.2655232 210.99100267 471.2655232 471.2655232C973.13069867 657.4437888 762.1386048 868.43806613 501.86517547 868.43806613zM548.76043307 156.9155296c-26.266496-26.09730987-68.8829696-26.1256896-95.1592896-0.01637333-26.26103893 26.092944-26.28396053 68.4867456-0.01855574 94.58623893 26.30251627 26.13005547 68.94409493 26.08093653 95.200768-0.01309867C575.0629504 225.36407147 575.0629504 183.05213332999995 548.76043307 156.9155296zM669.94717547 297.94076693c-1.3676832 1.42553387-2.54544 2.93620693-3.94805227 4.32899414-90.83247893 90.25396907-238.68303253 90.23541333-329.55153173-0.0523936-0.90269227-0.89286827-1.7115136-1.90908053-2.56945387-2.86089174l-65.92493227 65.5014208c0.86994667 0.93653013 1.65038827 1.98548693 2.54762347 2.8783552 127.22397547 126.4075136 334.20252693 126.42606933 461.41340373 0.02619627 1.40588587-1.39278827 2.57054507-2.91655893 3.93058774-4.34645867L669.94717547 297.94076693zM789.5162752 439.67768107c-1.39715413 1.3993376-2.65786773 2.82814507-4.05938773 4.21765866-156.7246656 155.721552-411.74894293 155.74884053-568.5085376-0.009824-0.8994176-0.89177707-1.71697173-1.90580587-2.62512107-2.80631466l-65.90310187 65.4817728c0.9081504 0.90050987 1.75626667 1.8828832 2.6535008 2.77684373l0.00327467 0c193.09105707 191.857632 507.23896533 191.857632 700.28745387 0.04475307 1.4004288-1.39278827 2.6622336-2.822688 4.05938773-4.22093334L789.5162752 439.67768107z"  horiz-adv-x="1024" />

    
    <glyph glyph-name="loop" unicode="&#59316;" d="M512 748.08888853l0 136.53333334-182.0444448-182.0444448 182.0444448-182.0444448 0 136.53333333c150.86933333 0 273.06666667-122.19733333 273.06666667-273.06666667 0-46.19377813-11.60533333-89.42933333-31.63022187-127.65866666l66.44622187-66.44622187c35.27111147 56.43377813 56.20622187 122.6524448 56.20622186 194.10488853 0 201.15911147-162.92977813 364.08888853-364.08888853 364.08888854zM512 110.93333332999998c-150.86933333 0-273.06666667 122.19733333-273.06666667 273.06666667 0 46.19377813 11.60533333 89.42933333 31.63022187 127.65866667l-66.44622187 66.44622186c-35.27111147-56.43377813-56.20622187-122.6524448-56.20622186-194.10488853 0-201.15911147 162.92977813-364.08888853 364.08888853-364.08888853l0-136.53333334 182.0444448 182.0444448-182.0444448 182.0444448 0-136.53333333z"  horiz-adv-x="1024" />

    
    <glyph glyph-name="search" unicode="&#58893;" d="M999.61856-3.6329244500000186l-244.02488889 244.30592c50.94741333 69.23946667 78.80590222 152.54983111 78.80590222 240.08476445 0 108.92174222-42.50055111 211.37635555-119.34037333 288.21162667-77.11971555 76.84096-179.56977778 119.34037333-288.49152 119.34037333s-211.37635555-42.50055111-288.21162667-119.34037333c-158.74048-158.74048-158.74048-417.40401778 0-576.42780445 76.84096-76.84096 179.28988445-119.34037333 288.21162667-119.34037333 87.81368889 0 170.84302222 27.86076445 240.36352 78.80590222l244.02488889-244.30592c24.48497778-24.48497778 64.17408-24.48497778 88.37802666 0 24.76942222 24.48497778 24.76942222 64.17408 0.28444445 88.65678222zM217.16309333 271.06872889c-115.39911111 115.68128-115.39911111 303.69109333 0 419.09134222 56.00938667 56.00938667 130.31537778 86.68956445 209.68675556 86.68956444 79.08807111 0 153.39406222-30.68131555 209.40458666-86.68956444 56.00938667-56.00938667 86.97514667-130.31537778 86.97514667-209.68675556 0-79.37365333-30.96007111-153.67395555-86.97514667-209.68675555-56.00938667-56.00938667-130.31537778-86.68956445-209.40458666-86.68956445-79.37365333 0.28444445-153.67395555 30.96007111-209.68675556 86.97514667z"  horiz-adv-x="1024" />

    
    <glyph glyph-name="user" unicode="&#58963;" d="M693.5808 511.6352c-2.1632 19.4048 5.6832 82.6752 6.0544 96.3584 0.7936 35.4688-0.0768 38.4-8.6528 72.9472 0 0-10.368 31.3472-26.7136 40.7552l-32.4864 5.6064-20.096 18.6624c-80.96 49.9456-167.7312 14.9376-214.2336-3.9808C330.4704 720.1856 288.128 654.3936 317.6576 513.9136c0.6272-2.9952 0.4864-11.1744 0.4864-13.7984-1.0496-2.496 0 0 0 0-3.968-10.24-13.0816-25.7664-12.352-33.9968 2.5728-28.6208 3.136-97.5104 30.0928-114.4704 2.5088-1.5488 14.6432-2.1376 13.312-2.0224 13.1968-1.1136 13.504-58.8288 16.1536-86.7328 6.7456-18.5088 22.912-20.544 27.584-46.784 0 0-15.4496-0.4352-20.6976-5.0432-16.3712-14.4896-26.3296-59.712-43.7376-71.68-14.5664-3.968-29.1328-8-43.712-11.9296-51.0336-20.992-107.7504-46.1056-158.9248-67.7376-46.5664-19.6992-67.2512-31.7312-75.7376-102.1696 0-33.2544-1.8176-85.3248-0.96-128.896L974.848-171.3472c0.8064 43.5712-2.304 88.8064-2.304 122.1248-12.3264 68.3648-28.352 89.2544-74.9184 108.9536-51.2128 21.632-107.904 46.7456-158.8992 67.7376-14.6304 3.9296-29.1712 7.9616-43.7632 11.9296-17.3824 11.968-26.0736 58.7008-43.6864 71.68-7.5648 5.5808-18.0352-1.2288-27.8784 3.968-4.1344 18.6496 20.4288 32.3712 27.8784 55.7824 6.528 20.6848 0.6912 47.5392 11.0592 66.6752 7.168 13.2736 23.5136 13.376 31.6544 24.7808 7.3856 10.3168 12.2496 28.3648 14.592 40.9984 4.1472 23.1296 2.2784 78.9632 1.1904 80.7168C709.9264 484.0896 694.2208 505.8112 693.5808 511.6352z"  horiz-adv-x="1024" />

    
    <glyph glyph-name="contrast" unicode="&#59095;" d="M512 893.72444445C230.51377778 893.72444445 2.27555555 665.48622222 2.27555555 384c0-281.48622222 228.23822222-509.72444445 509.72444445-509.72444445 281.48622222 0 509.72444445 228.23822222 509.72444445 509.72444445C1021.72444445 665.48622222 793.48622222 893.72444445 512 893.72444445zM821.02044445 74.97955554999999C738.41777778-7.39555555000004 628.05333333-52.90666667000005 512-52.90666667000005L512 820.90666667c116.05333333 0 226.41777778-45.51111111 309.02044445-127.88622222C903.39555555 610.41777778 948.90666667 500.736 948.90666667 384 948.90666667 267.264 903.39555555 157.58222221999995 821.02044445 74.97955554999999z"  horiz-adv-x="1024" />

    
    <glyph glyph-name="mobile" unicode="&#59241;" d="M736 896l-448 0c-52.8 0-96-43.2-96-96l0-832c0-52.8 43.2-96 96-96l448 0c52.8 0 96 43.2 96 96l0 832c0 52.8-43.2 96-96 96zM384 848l256 0 0-32-256 0 0 32zM512-64c-35.36 0-64 28.64-64 64s28.64 64 64 64 64-28.64 64-64-28.64-64-64-64zM768 128l-512 0 0 640 512 0 0-640z"  horiz-adv-x="1024" />

    
    <glyph glyph-name="export" unicode="&#58930;" d="M997.831117 769.137779 918.755558 864.711117C903.395558 884.053338 880.071117 896 853.333338 896L170.666662 896C143.928883 896 120.604442 884.053338 104.675558 864.711117L26.168883 769.137779C9.671117 749.795558 0 724.195558 0 696.888883L0-14.222221C0-76.8 51.2-128 113.777779-128L910.222221-128C972.8-128 1024-76.8 1024-14.222221L1024 696.888883C1024 724.195558 1014.328883 749.795558 997.831117 769.137779L997.831117 769.137779ZM512 71.111117 199.111117 384 398.222221 384 398.222221 497.777779 625.777779 497.777779 625.777779 384 824.888883 384 512 71.111117 512 71.111117ZM120.604442 782.222221 166.684442 839.111117 849.351117 839.111117 902.826662 782.222221 120.604442 782.222221 120.604442 782.222221Z"  horiz-adv-x="1024" />

    
    <glyph glyph-name="problem" unicode="&#58951;" d="M511.99941746 892.72358685c-280.58346496 0-508.72475193-228.30778141-508.72475193-508.72475194s228.30545237-508.72475193 508.72475193-508.72475192c280.41464149 0 508.72475193 228.30778141 508.72475193 508.72475192S792.41406009 892.72358685 511.99941746 892.72358685L511.99941746 892.72358685zM590.3238747 149.12326656000005c0-43.16856775-35.2699904-78.38500067-78.37801472-78.38500067-43.11733817 0-78.32911417 35.27231829-78.32911417 78.38500067L433.61674581 383.94411348999995c0 43.22212523 35.21293995 78.38500067 78.32911417 78.38500068 43.10802432 0 78.37801472-35.27464733 78.37801472-78.38500068L590.3238747 149.12326656000005 590.3238747 149.12326656000005zM511.99941746 540.63028451c-43.17089678 0-78.38267165 35.24437561-78.38267165 78.35705686 0 43.08357461 35.2699904 78.32678514 78.38267165 78.32678514s78.32445725-35.24437561 78.32445724-78.32678514C590.3238747 575.8746601299999 555.11209984 540.63028451 511.99941746 540.63028451L511.99941746 540.63028451z"  horiz-adv-x="1024" />

    
    <glyph glyph-name="setting" unicode="&#58999;" d="M957.44880867 320.66700629h-37.26326328c-12.83286016-81.27943794-47.82807609-152.74037475-98.53312569-209.96082005l53.40621369 0.22820181c12.44049294-12.40439922 18.65899235-28.70336626 18.65899235-45.03376782 0-16.27218717-6.1882277-32.60026197-18.65899235-45.0349329-12.38227741-12.41138517-28.6486437-18.63337757-44.94295382-18.66597832h-0.19443712c-17.55989789 0-33.45368974 7.1336357-44.93829575 18.66481437l-29.48693675 29.48344377c-52.19069042-38.19819235-113.52575317-64.29004459-180.24800938-74.62199865v-37.25744128c0-35.17801017-28.51940693-63.70091122-63.69974727-63.70091122-35.1803392 0-63.69625429 28.51707904-63.69625316 63.70091122v37.25744128c-81.28409486 12.84217401-152.74968974 47.83739107-209.98061283 98.53778261l0.21655893-53.4364854c-12.41487815-12.44282083-28.71268011-18.66481437-45.03958983-18.66481437-16.26170937 0-32.59560391 6.1882277-45.03493291 18.66481437-12.41371421 12.38227741-18.62988459 28.61837198-18.66481436 44.91617507v0.21539385c0 17.56222691 7.13247175 33.45485369 18.66132139 44.94178873l29.51487942 29.48344377c-38.18887737 52.19534734-64.29004459 113.55835392-74.61501269 180.27944618h-37.26326329c-35.17684622 0-63.70207517 28.51940693-63.70207516 63.69974728 0 35.17335325 28.52406499 63.70091122 63.70207516 63.70091008h37.26326329c12.83402411 81.2608091 47.81876224 152.70428217 98.51100501 209.91541248l-53.44114346-0.1560155c-11.52884963 11.49624889-18.66481437 27.39586275-18.66481436 44.95925361v0.07800719 0.07800832c0 0.02910777 7.13247175 33.46183965 18.65899349 44.95459555 11.48344206 11.54747847 27.37956295 18.69392099 44.94295267 18.69392213h0.06636544c16.3222528 0 32.62587563-6.2196645 45.06403954-18.68926407l29.51487943-29.52303047c60.51539968 44.714752 135.30971363 73.42976 216.50532239 78.59340971l-36.22471226 33.29301617c0 35.17568227 28.51591395 63.69625429 63.6962543 63.6962543 35.17917525 0 63.69974613-28.51940693 63.69974613-63.6962543v-37.26326214c81.28409486-12.84101006 152.75085369-47.83506205 209.98294187-98.53429078l-0.25148758 53.43532146c11.49741397 11.53001358 27.39819065 18.66481437 44.9650745 18.66481436h0.14670051c17.56688384 0 33.46998955-7.13247175 44.96623957-18.66132138 11.54747847-11.48693504 18.69042802-27.38538382 18.69042916-44.95343161V702.77699925c0-17.56804779-7.14411463-33.46649657-18.68926521-44.94993863l-29.49159367-29.48111473c44.70892999-60.48745699 73.41811712-135.26081309 78.57594482-216.42847915l33.30466019 36.14786901c35.17684622 0 63.69974613-28.52522894 63.69974613-63.69974727 0.00349298-35.17684622-28.51475001-63.69974613-63.69276017-63.69974613l0.00349297 0.00116394zM511.54941838 702.86432142c-175.61295189 0-318.50222592-142.89043911-318.50222705-318.49989689 0-175.61527979 142.88927517-318.50338987 318.50222705-318.50338986 175.61178681 0 318.50106197 142.88927517 318.50106084 318.50338986-0.00232903 175.61062286-142.89160306 318.49989689-318.50106084 318.49989689z m0-509.59913643c-105.53636067 0-191.10040462 85.53377223-191.10040462 191.10156744 0 105.56430336 85.56637184 191.09923954 191.10040462 191.09924067s191.09923954-85.53493618 191.09923954-191.09924067c0-105.56779634-85.56520789-191.10156857-191.09923954-191.10156744z m0 286.65176975c-52.68667961 0-95.55136626-42.86119367-95.55136739-95.54787328 0-52.69133653 42.86235762-95.55020231 95.55136739-95.55020231 52.68784355 0 95.55020231 42.85886464 95.55020117 95.55020231 0 52.68667961-42.86119367 95.54787328-95.55020117 95.54787328z"  horiz-adv-x="1024" />

    
    <glyph glyph-name="QRCode" unicode="&#58883;" d="M24.629481 513.07021c7.036995-4.104914 15.012255-6.098729 22.987516-6.098729 7.975261 0 15.833238 1.993815 22.987516 6.098729 14.191272 8.209827 22.987516 23.456649 22.987515 39.759019V741.303402c0 33.777574 27.561562 61.221853 61.45642 61.221853h188.122323c16.302371 0 31.549193 8.796243 39.759019 22.987516 8.209827 14.191272 8.209827 31.783759 0 45.975031-8.209827 14.191272-23.456649 22.987516-39.759019 22.987516H154.931165h-0.117283C70.487229 894.358035 1.759249 825.630054 1.641965 741.303402v-188.35689c0-16.419654 8.796243-31.666476 22.987516-39.876302zM869.186118 894.358035H680.829229c-16.302371 0-31.549193-8.796243-39.759019-22.987516-8.209827-14.191272-8.209827-31.783759 0-45.975032 8.209827-14.191272 23.456649-22.987516 39.759019-22.987515h188.356889c33.777574 0 61.221853-27.561562 61.221854-61.45642v-188.122323c0-16.302371 8.796243-31.549193 22.987515-39.759019 7.036995-4.104914 15.012255-6.098729 22.987516-6.098729 7.975261 0 15.833238 1.993815 22.987516 6.098729 14.191272 8.209827 22.987516 23.456649 22.987516 39.759019V741.068835c0 84.443935-68.727981 153.171916-153.171917 153.2892zM999.370519 254.92979000000003c-14.191272 8.209827-31.783759 8.209827-45.975032 0-14.191272-8.209827-22.987516-23.456649-22.987515-39.759019v-188.356889c0-33.777574-27.561562-61.221853-61.45642-61.221854H680.829229c-16.302371 0-31.549193-8.796243-39.759019-22.987515-8.209827-14.191272-8.209827-31.783759 0-45.975032 8.209827-14.191272 23.456649-22.987516 39.759019-22.987516h188.356889c84.443935 0 153.171916 68.610698 153.171917 153.054633V215.17077099999995c0 16.302371-8.796243 31.549193-22.987516 39.759019zM343.170771-34.40797199999997H154.696598c-33.777574 0.117283-61.221853 27.678845-61.221853 61.45642V215.17077099999995c0 16.302371-8.796243 31.549193-22.987516 39.759019-14.191272 8.209827-31.783759 8.209827-45.975031 0-14.191272-8.209827-22.987516-23.456649-22.987516-39.759019V26.931164999999964c0-84.443935 68.610698-153.171916 153.054633-153.2892h188.356889c16.302371 0 31.549193 8.796243 39.75902 22.987516 8.209827 14.191272 8.209827 31.783759 0 45.975032-7.975261 14.191272-23.222082 22.987516-39.524453 22.987515zM247.467644 406.928874c-8.209827-14.191272-8.209827-31.783759 0-45.975031 8.209827-14.191272 23.456649-22.987516 39.75902-22.987516h491.76864c16.302371 0 31.549193 8.796243 39.75902 22.987516 8.209827 14.191272 8.209827 31.783759 0 45.975031-8.209827 14.191272-23.456649 22.987516-39.75902 22.987516H287.226664c-16.419654 0-31.666476-8.796243-39.75902-22.987516z"  horiz-adv-x="1024" />

    
    <glyph glyph-name="position" unicode="&#58909;" d="M512 881.1026963c-182.27098864 0-331.40179753-149.13080889-331.40179753-331.40179754 0-372.82702222 331.40179753-662.80359506 331.40179753-662.80359506s331.40179753 289.97657283 331.40179753 662.80359506c0 182.27098864-149.13080889 331.40179753-331.40179753 331.40179754z m0-497.1026963c-91.13549431 0-165.70089876 74.56540445-165.70089876 165.70089876s74.56540445 165.70089876 165.70089876 165.70089877 165.70089876-74.56540445 165.70089876-165.70089877-74.56540445-165.70089876-165.70089876-165.70089876z"  horiz-adv-x="1024" />

    
    <glyph glyph-name="sensor" unicode="&#58894;" d="M880.564736 289.357463a45626.14648 45626.14648 0 0 1 0-67.107132c0-26.998734 0-35.369589-0.202646-102.164957a320.461884 320.461884 0 0 0-4.769984-53.405118c-15.167303-88.992942-82.835609-156.427425-172.514431-171.890903-6.391155-1.075585-12.813487-2.073228-19.235819-3.08646-3.741164-0.576763-7.46674-1.153526-11.176728-1.761465a61.214798 61.214798 0 0 0-9.976437-0.794998h-42.337508a63.911554 63.911554 0 0 0-8.978793 0.639116c-3.77234 0.545586-7.560269 1.044408-11.363786 1.558818a530.980306 530.980306 0 0 0-24.987859 3.647635c-70.988589 12.969369-126.373406 48.588369-164.673574 105.890533a24692.150862 24692.150862 0 0 0-109.491404 165.905041 120.091368 120.091368 0 0 0-17.16259 43.350739C190.88113 278.430146 130.414565 388.186548 130.414565 511.972316 130.414565 718.640458 298.564304 886.790197 505.232446 886.790197c206.668141 0 374.786704-168.149739 374.786704-374.817881a372.557594 372.557594 0 0 0-30.802251-148.383922c19.6567-18.175822 31.347838-44.441912 31.347837-74.230931zM505.232446 824.297168c-172.483254 0-312.324852-139.810421-312.324852-312.324852 0-91.907932 39.781045-174.447365 102.991131-231.593647 0.498822 0.888526 0.904115 1.792641 1.434113 2.681167a101.401136 101.401136 0 0 0 61.355091 45.283674 234.415109 234.415109 0 0 0-33.779594 32.750775 20.872578 20.872578 0 0 0 2.618815 29.35255 20.85699 20.85699 0 0 0 29.35255-2.618815 191.48525 191.48525 0 0 1 51.643653-43.148093V503.27411c0 4.20881 0 9.430851 0.483234 15.666124 3.928222 48.448075 47.045139 87.886181 96.101153 87.886181 4.582926 0 9.259381-0.374116 14.013778-1.122349 50.162776-7.887621 83.848841-47.310138 83.84884-98.034089 0.031176-20.420521 0.031176-45.891613 0.031177-72.703289h2.104405c10.225849 0 20.264639-2.525286 29.259021-7.279682a104.690243 104.690243 0 0 0 30.599605-19.298172c1.231467 0.327352 2.509698 0.467646 3.756752 0.763821a190.705841 190.705841 0 0 1 27.63785 73.248876 191.516427 191.516427 0 0 1-21.792281 123.053124 20.841402 20.841402 0 0 0 36.460762 20.17111 233.02776 233.02776 0 0 0 26.515501-149.584213c-3.741164-24.146097-11.176728-46.764552-21.46493-67.574777a116.911379 116.911379 0 0 0 6.484685-1.901758c13.094074-4.504985 24.738448-11.706726 34.465474-20.903755a92.017049 92.017049 0 0 0 35.073414 3.133225 310.766033 310.766033 0 0 1 25.439916 123.177829c0 172.514431-139.826009 312.324852-312.309263 312.324852z m285.263764-498.323062a32.984597 32.984597 0 0 1-7.186153 0.810586c-13.031722 0-25.658151-7.513505-31.160779-20.015228a47.590725 47.590725 0 0 1-3.585282-18.175822c-0.031176-10.98967-0.077941-14.793186-0.140294-14.793187v12.673194l-0.015588-6.60939c0-2.930579-0.249411-5.939098-1.153526-8.651442a10.911729 10.911729 0 0 0-9.976437-7.061448 7.108212 7.108212 0 0 0-1.63676 0.155882c-5.253218 1.02882-8.932029 3.959399-9.633497 9.61791-0.218235 2.135581-0.218235 4.286751-0.218235 6.453508l0.015588 24.878741 0.062353-18.36288s0.031176 6.032627 0.046764 24.878741c0 16.710533-9.228205 30.72431-23.662863 35.681353a34.917532 34.917532 0 0 1-38.939283-11.628785c-5.268806-6.671743-7.279682-14.372306-7.544681-22.556102v-11.815844c0-0.467646 0-0.950879-0.031176-1.402936v-0.187058c-0.436469-7.607034-3.943811-11.815843-10.116732-12.36143-0.358528-0.031176-0.717056-0.031176-1.091172-0.031177a11.036434 11.036434 0 0 0-11.192316 9.992026c-0.202646 1.730288-0.140294 3.460577-0.140294 5.268806v24.863154l0.015588-18.316116 0.062353 24.847565c0 19.173466-8.479972 31.004898-26.749324 37.318112-0.545586 0.187058-0.919703 0.639116-1.418524 1.013232h-14.060542c-4.317927-2.135581-8.994382-3.803517-12.922605-6.484685-10.677906-7.435564-14.902304-18.378469-14.902303-30.911368l-0.046765-25.174917 0.062353 17.786118s0.046765-6.048215 0.046764-25.159329c0-2.930579-0.062353-6.063804-1.215878-8.620266a10.179084 10.179084 0 0 0-9.820556-6.422332h-1.013232c-4.816749 0.374116-8.214973 2.774697-9.649086 7.279682a29.773431 29.773431 0 0 0-1.02882 8.651442c-0.077941 55.634228-0.031176 148.633333-0.077941 204.205209 0 19.82817-11.659962 33.311949-31.06725 36.367233a28.916081 28.916081 0 0 1-4.302339 0.34294c-16.398769 0-32.470187-13.967013-33.810771-30.428135-0.280587-3.554106-0.280587-7.061447-0.280587-10.615553V185.446629c-0.389705-0.187058-0.810586-0.296175-1.184702-0.483234-1.605583 2.104405-3.164401 4.239986-4.723219 6.359979-14.684069 19.99964-29.040787 40.279867-44.239266 59.920979-9.119088 11.815843-21.012872 18.11347-34.979885 18.11347-3.070872 0-6.313214-0.327352-9.649086-0.982056-22.976983-4.442632-36.725761-28.541965-29.960489-51.908652 1.589995-5.346747 3.77234-10.771435 6.843213-15.432302 36.242527-55.260112 72.485055-110.457871 109.210816-165.437395 29.648726-44.395148 71.892704-69.601241 123.926061-79.094445 11.285845-2.010876 22.758748-3.195578 34.091358-4.879102h42.337508c9.976438 1.621171 19.984052 3.102049 29.913725 4.785573 63.054204 10.864964 110.676105 57.941279 121.385187 120.777248 2.462933 14.216424 3.819105 28.775787 3.881458 43.132505 0.311764 101.02702 0.140294 68.089187 0.202646 169.069442 0 18.581115-10.677906 32.922244-27.575497 36.585467zM604.513589 678.048827a192.062013 192.062013 0 0 1-69.679182 25.0658c-105.500828 16.336417-204.470208-56.164226-220.75986-161.571526a192.358189 192.358189 0 0 1 2.369404-71.92388 20.841402 20.841402 0 0 0-40.638395-9.134676 234.446285 234.446285 0 0 0-2.930579 87.418535c19.82817 128.119283 140.278066 216.223698 268.319409 196.395528 30.2099-4.676455 58.720689-14.949068 84.721779-30.506076a20.810225 20.810225 0 1 0-21.402576-35.743705z"  horiz-adv-x="1024" />

    
    <glyph glyph-name="bluetooth1" unicode="&#59015;" d="M512-128c-4.265947 0-12.79784 0-17.063787 4.265947-17.063787 4.265947-25.595681 21.329734-25.595681 38.393521v366.871424l-162.105978-162.105978c-17.063787-17.063787-42.659468-17.063787-59.723255 0s-17.063787 42.659468 0 59.723255l204.765446 204.765446-204.765446 204.765445c-17.063787 17.063787-17.063787 42.659468 0 59.723255s42.659468 17.063787 59.723255 0L469.340532 486.296337V853.167761c0 17.063787 8.531894 34.127574 25.595681 38.393521 17.063787 8.531894 34.127574 4.265947 46.925415-8.531893l234.627073-234.627074c17.063787-17.063787 17.063787-42.659468 0-59.723255L571.723255 383.913615l204.765446-204.765446c17.063787-17.063787 17.063787-42.659468 0-59.723255l-234.627073-234.627074c-8.531894-8.531894-17.063787-12.79784-29.861628-12.79784z m42.659468 409.530892v-264.488701l132.24435 132.24435-132.24435 132.244351z m0 469.254146v-264.488701l132.24435 132.244351L554.659468 750.785038z"  horiz-adv-x="1024" />

    
    <glyph glyph-name="plus" unicode="&#58960;" d="M512-118.74880050000002a62.84360061 62.84360061 0 0 0-62.84360061 62.84359915V823.90520135a62.84360061 62.84360061 0 0 0 125.68720122 0v-879.8104027a62.84360061 62.84360061 0 0 0-62.84360061-62.84359915zM951.90520135 321.15639939000005H72.09479865a62.84360061 62.84360061 0 1 0 0 125.68720122h879.8104027a62.84360061 62.84360061 0 1 0 0-125.68720122z"  horiz-adv-x="1024" />

    
    <glyph glyph-name="feedback" unicode="&#59055;" d="M310.27016363 668.05073579h400.45928334c15.90776377 0 28.75808768 12.87826773 28.75808882 28.73712981 0 15.85420629-12.85032505 28.73596587-28.75808882 28.73596587h-400.45928334c-15.8868059 0-28.74295182-12.88176071-28.74295182-28.73596587 0-15.85886322 12.85730987-28.73713095 28.74295182-28.73712981z m0-159.70402418h285.41645368c15.87981995 0 28.66960157 12.87826773 28.66960157 28.73596586 0 15.86002717-12.78978162 28.71035221-28.66960157 28.71035222H310.27016363c-15.8868059 0-28.74295182-12.85032505-28.74295182-28.71035222 0-15.86352014 12.85730987-28.73596587 28.74295182-28.73596586z m652.6339493 90.18978759l-72.0139776 41.84942137V856.73988437c0 16.05330034-13.01798343 29.08758357-29.05148986 29.08758358H159.19705998c-16.03117853 0-29.06080483-13.00634055-29.06080483-29.08758358v-216.37142869l-72.03842731-41.85524224-57.42419627-28.77555257v-656.51105109c0-3.94579627 0.80336327-7.71229013 2.27736121-11.1166885 0.11177187-0.28874525 0.28525227-0.51345408 0.42380288-0.82548622a29.47529387 29.47529387 0 0 1 2.8234149-4.80853789c5.03906873-6.97645625 13.01216142-11.5020709 22.16934286-11.83156679 0.35743858 0 0.68576939-0.11293696 1.04320797-0.11293582h962.20021077c15.8868059 0 28.71733703 12.88059563 28.71733703 28.69521522V567.0586185899999l-57.42419626 31.47788061z m-72.01281366-24.6155264l67.7270437-39.35317219-67.7270437-39.34036538v78.69353757zM206.20314397 828.40443563h608.6014737c14.27425735 0 18.68227811-4.36494222 18.68227812-18.59844893v-347.94724807L510.50795577 274.22560482999995 187.55346546 461.86456064V809.78502883c0.02328576 14.25562851 4.41384277 18.61940679 18.64967851 18.6194068z m-76.06688882-333.15487858l-67.74217956 39.33920028 67.74217956 39.35550237v-78.69470265z m832.76785778-553.22527289H58.12577053v528.58995371L496.05090418 216.24371199999996c0.40633913-0.33531677 0.89301447-0.45407459 1.34010311-0.64851285 0.65433373-0.35743858 1.27024583-0.57981838 1.91293781-0.86972872 1.07231573-0.46338958 2.13997454-0.86623573 3.22975403-1.22250922 0.71487715-0.17231531 1.40297557-0.28525227 2.14346752-0.46222564 1.04553699-0.22936576 2.09340302-0.40750307 3.18085348-0.49715314 0.88835755-0.04424363 1.78602894-0.04424363 2.67438648-0.04424362s1.78020693 0 2.67322141 0.04424362c1.0618368 0.11642994 2.11086677 0.28874525 3.19016846 0.49715314 0.70556331 0.19443712 1.42160441 0.30621013 2.13298859 0.46222564a42.07413021 42.07413021 0 0 1 3.25187584 1.22250922c0.64036181 0.28990919 1.2679168 0.51229013 1.91526456 0.86972872 0.43893874 0.22354489 0.91164331 0.33415282 1.33544733 0.64851285L962.94835655 470.61423787v-528.58995371h-0.04424362zM32.23417742 484.82445881v-572.68762852h950.38494379v597.21350372L528.88635278 250.59973005999996 32.23417742 509.35033401v-24.5258752z m0 0"  horiz-adv-x="1024" />

    
    <glyph glyph-name="light" unicode="&#59146;" d="M463.75936-125.62887110999998H560.81066667v48.52622222h-97.05130667v-48.52622222zM366.71032889 68.47260444999995h291.22332444v48.52622222H366.71032889v-48.52622222zM366.71032889-28.558222219999948h291.22332444v48.54670222H366.71032889V-28.558222219999948zM851.95434667 553.78944c0 187.61841778-152.08903111 339.67672889-339.66876445 339.67672889-187.53877333 0-339.65852445-152.05831111-339.65852444-339.67672889 0-135.40010667 79.4624-251.99843555 194.16405333-306.56056889v-81.72544h291.17212444v81.86538667c114.53895111 54.56440889 193.99111111 171.02051555 193.99111112 306.42062222"  horiz-adv-x="1024" />

    
    <glyph glyph-name="OTA" unicode="&#58985;" d="M10.31463822 362.43299199c0 59.22253725 17.28726448 107.42596434 51.86438091 144.60769258 34.57452775 37.17913956 80.25619509 55.76870875 137.04241092 55.76870873 54.01849341 0 97.50462222-17.98113659 130.4532103-53.93823122 32.94858809-35.96227318 49.42288213-82.16952225 49.42288214-138.62692576 0-58.90408084-17.12674133-106.69843342-51.37504546-143.39082619-34.25089399-36.69239277-79.11958969-55.03600048-134.60091092-55.03600048-54.18160523 0-98.19849554 17.77401006-132.04031503 53.32979864-33.84699805 35.54802134-50.76661285 81.30994844-50.76661286 137.2857837z m84.69128321 4.39107462c0-36.77265374 8.86499769-66.83442229 26.60276148-90.18012588 17.73258525-23.35347083 42.05954845-35.0224384 72.97571104-35.0224384 31.56343254 0 56.13635721 11.18222199 73.70842052 33.55702188 17.57465198 22.37221001 26.35938869 52.43397856 26.35938748 90.18271335 0 39.37467566-8.54136391 70.49278745-25.62667923 93.35433293-17.08531651 22.8589568-41.16631703 34.29231882-72.24300277 34.2923188-31.56860989 0-56.42115603-11.71557095-74.56281578-35.14412418-18.14683709-23.43114311-27.21378395-53.78029795-27.21378274-91.0396985zM682.22660457 490.56639052h-107.87646366v-312.15978026H493.56577541V490.56639052h-107.63309086v65.89717618h296.29392002v-65.89717618zM1024.16335455 178.40661025999998H936.29786431l-28.311552 86.64344652h-137.40747071l-27.82480521-86.64344652h-87.37615598l138.38614164 378.05954511h94.69547496l135.70385754-378.05954511z m-135.20934473 148.88225755l-42.95795719 131.06164288c-2.76772242 8.29798992-4.71988694 19.28085262-5.85649114 32.94858808h-2.19812598a139.45801933 139.45801933 0 0 0-6.59178929-31.97250582l-43.19874253-132.03772514h100.80310613z"  horiz-adv-x="1024" />

    
    <glyph glyph-name="bluetooth" unicode="&#59445;" d="M553.714286 294.285714l84.571428-84.571428-85.142857-85.142857z m-0.571429 349.142857l85.142857-85.142857-84.571428-84.571428zM478.857143-56l265.142857 265.142857-174.857143 174.857143 174.857143 174.857143-265.142857 265.142857v-349.142857L333.142857 620.571429l-53.142857-53.142858 182.857143-183.428571-182.857143-183.428571 53.142857-53.142858 145.714286 145.714286v-349.142857z m410.857143 440q0-119.428571-18.285715-208.857143t-50-146.857143T741.142857-64.571429t-103.714286-49.428571T512-128t-125.428571 14T282.857143-64.571429t-80.285714 92.857143-50 146.857143T134.285714 384t18.285715 208.857143 50 146.857143T282.857143 832.571429t103.714286 49.428571T512 896t125.428571-14T741.142857 832.571429t80.285714-92.857143 50-146.857143 18.285715-208.857143z"  horiz-adv-x="1024" />

    
    <glyph glyph-name="rss" unicode="&#59284;" d="M302.18042785 50.55525925999996q0-55.4968557-38.83614815-94.33300385t-94.33300385-38.83614815-94.33300385 38.83614815-38.83614815 94.33300385 38.83614815 94.33300385 94.33300385 38.83614815 94.33300385-38.83614815 38.83614815-94.33300385zM657.25933037-34.72892206999995q1.39810133-19.41807408-11.80618904-33.28257896-12.46640355-14.56355555-32.5835283-14.56355556h-93.63395318q-17.32092208 0-29.82616178 11.4566637t-13.86450489 28.77758579q-15.26260622 158.80100978-127.96510815 271.5035117t-271.5035117 127.96510815q-17.32092208 1.39810133-28.77758578 13.86450488t-11.4566637 29.82616178V494.4524326q0 20.11712475 14.56355555 32.5835283 11.80618903 11.80618903 29.82616178 11.80618903h3.45641719q110.95487525-9.00998637 212.20071348-55.84638103t179.61718518-125.86795615q79.07039763-78.37134697 125.86795615-179.61718519t55.84638104-212.20071348z m355.07890252-1.39810133q1.39810133-18.71902341-12.46640356-32.5835283-12.46640355-13.86450489-31.88447763-13.86450489h-99.18752237q-18.01997275 0-30.87473778 12.15571437t-13.51497955 29.47663645q-8.3109357 149.09197275-70.06041126 283.30970074t-160.54863644 233.01688889-233.0168889 160.54863644-283.30970073 70.72062578q-17.32092208 0.69905067-29.47663645 13.51497955t-12.15571437 30.17568712V849.53133511q0 19.41807408 13.86450489 31.88447764 12.46640355 12.46640355 30.52521244 12.46640355h2.097152q181.71433718-9.00998637 347.77770667-83.22586548t295.07705362-203.88977779q129.67389867-128.974848 203.88977778-295.07705362t83.22586549-347.77770666z"  horiz-adv-x="1024" />

    
    <glyph glyph-name="tree" unicode="&#59322;" d="M976 128H960v208c0 61.76-50.24 112-112 112H576v128h16c26.4 0 48 21.6 48 48v160c0 26.4-21.6 48-48 48h-160c-26.4 0-48-21.6-48-48v-160c0-26.4 21.6-48 48-48h16v-128H176C114.24 448 64 397.76 64 336V128h-16c-26.4 0-48-21.6-48-48v-160c0-26.4 21.6-48 48-48h160c26.4 0 48 21.6 48 48v160c0 26.4-21.6 48-48 48H192v192h256v-192h-16c-26.4 0-48-21.6-48-48v-160c0-26.4 21.6-48 48-48h160c26.4 0 48 21.6 48 48v160c0 26.4-21.6 48-48 48H576v192h256v-192h-16c-26.4 0-48-21.6-48-48v-160c0-26.4 21.6-48 48-48h160c26.4 0 48 21.6 48 48v160c0 26.4-21.6 48-48 48zM192-64H64v128h128v-128z m384 0h-128v128h128v-128zM448 640V768h128v-128h-128z m512-704h-128v128h128v-128z"  horiz-adv-x="1024" />

    
    <glyph glyph-name="less" unicode="&#58917;" d="M512 875.52C240.57173333 875.52 20.48 655.42826667 20.48 384S240.57173333-107.51999999999998 512-107.51999999999998 1003.52 112.57173333000003 1003.52 384 783.42826667 875.52 512 875.52z m280.71253333-421.0688v-140.35626667H230.74133333v140.35626667h561.9712z"  horiz-adv-x="1024" />

    
    <glyph glyph-name="disc" unicode="&#59764;" d="M512 591.1466666700001c-114.56 0-207.36-92.8-207.36-207.36s92.8-207.14666667 207.36-207.14666667 207.36 92.8 207.36 207.14666667c0 114.56-92.8 207.36-207.36 207.36z m0-299.94666667c-51.2 0-92.8 41.6-92.8 92.8s41.6 92.8 92.8 92.8 92.8-41.6 92.8-92.8-41.6-92.8-92.8-92.8zM512 861.86666667C248.10666667 861.86666667 34.13333333 647.89333333 34.13333333 384s213.97333333-477.86666667 477.86666667-477.86666667 477.86666667 213.97333333 477.86666667 477.86666667S775.89333333 861.86666667 512 861.86666667z m0-739.84c-144.64 0-261.97333333 117.33333333-261.97333333 261.97333333s117.33333333 261.97333333 261.97333333 261.97333333 261.97333333-117.33333333 261.97333333-261.97333333-117.33333333-261.97333333-261.97333333-261.97333333z"  horiz-adv-x="1024" />

    
    <glyph glyph-name="ionic" unicode="&#59798;" d="M918.78923378 683.0286317A77.3203437 77.3203437 0 0 1 931.91585185 726.24355555c0 42.90180741-34.78262518 77.6722963-77.6722963 77.6722963a77.31548918 77.31548918 0 0 1-43.2173511-13.12904533C727.31974163 852.42462815 623.92092445 888.86992592 512 888.86992592 233.16859259 888.86992592 7.13007408 662.83140741 7.13007408 384c0-278.83626192 226.03851852-504.86992592 504.86992592-504.86992592 278.82655289 0 504.86992592 226.033664 504.86992592 504.86992592 0 111.9233517-36.44772503 215.32216889-98.08069214 299.0286317zM841.69462518 54.30052030000002c-42.83141689-42.83141689-92.69945837-76.45623941-148.2181594-99.93997275-57.45808118-24.3017197-118.51336059-36.62491497-181.47646578-36.62491496-62.96310518 0-124.02081185 12.32319525-181.47889303 36.62491496-55.51870103 23.48373333-105.38431525 57.10612859-148.21815942 99.93997275s-76.45866667 92.69945837-99.93997273 148.2181594C58.05882785 259.97676089000004 45.73563259 321.03689482000004 45.73563259 384c0 62.96310518 12.32319525 124.02081185 36.62491496 181.47889303 23.48130608 55.51870103 57.10612859 105.38431525 99.93997275 148.21815942s92.69945837 76.45866667 148.2181594 99.93997273c57.46050845 24.30414697 118.51821511 36.62734222 181.4813203 36.62734223 62.96067792 0 124.01838459-12.32319525 181.47646578-36.62491496a464.14294282 464.14294282 0 0 0 91.75525452-51.76615823A77.31548918 77.31548918 0 0 1 776.57125925 726.24355555c0-42.90180741 34.77534341-77.6722963 77.6722963-77.6722963 12.84748325 0 24.95222518 3.13844622 35.62731142 8.66046105a463.81283555 463.81283555 0 0 0 51.76615821-91.75282727c24.30414697-57.45808118 36.62734222-118.51578785 36.62734223-181.47889303 0-62.96067792-12.32319525-124.02323911-36.62734223-181.4813203-23.48373333-55.51870103-57.10612859-105.38674252-99.9424-148.2181594zM512.00728178 384m-233.01688889 0a233.01688889 233.01688889 0 1 1 466.03377778 0 233.01688889 233.01688889 0 1 1-466.03377778 0Z"  horiz-adv-x="1024" />

    
    <glyph glyph-name="power" unicode="&#60349;" d="M512 384c-40.27733333 0-72.81777778 32.54044445-72.81777778 72.81777778V820.90666667c0 40.27733333 32.54044445 72.81777778 72.81777778 72.81777778s72.81777778-32.54044445 72.81777778-72.81777778v-364.08888889c0-40.27733333-32.54044445-72.81777778-72.81777778-72.81777778zM791.89333333 809.984c-11.37777778 6.82666667-24.576 10.92266667-38.68444444 10.92266667-40.27733333 0-72.81777778-32.54044445-72.81777778-72.81777778 0-14.10844445 4.096-27.30666667 10.92266667-38.45688889 4.55111111-7.28177778 10.46755555-13.88088889 17.29422222-19.11466667 2.73066667-2.048 5.46133333-3.86844445 8.41955555-5.68888888 18.432-12.74311111 35.95377778-27.07911111 52.33777778-43.46311112C838.31466667 572.64355555 876.08888889 481.16622222 876.08888889 384c0-97.16622222-37.77422222-188.64355555-106.72355556-257.36533333C700.64355555 57.68533333000005 609.16622222 19.91111110999998 512 19.91111110999998c-97.16622222 0-188.64355555 37.77422222-257.36533333 106.72355556C185.68533333 195.35644445000003 147.91111111 286.83377778 147.91111111 384c0 97.16622222 37.77422222 188.64355555 106.72355556 257.36533333 16.15644445 16.15644445 33.67822222 30.72 52.11022222 43.23555556 3.18577778 1.82044445 5.91644445 3.64088889 8.87466666 5.91644444 6.82666667 5.23377778 12.51555555 11.60533333 17.06666667 18.88711112 7.05422222 11.15022222 10.92266667 24.34844445 10.92266667 38.45688888 0 40.27733333-32.54044445 72.81777778-72.81777778 72.81777778-14.10844445 0-27.30666667-4.096-38.45688889-10.92266666l-0.22755555 0.22755555C93.75288889 718.96177778 2.27555555 562.1759999999999 2.27555555 384c0-281.48622222 228.23822222-509.72444445 509.72444445-509.72444445s509.72444445 228.23822222 509.72444445 509.72444445c0 178.176-91.47733333 334.96177778-229.83111112 425.984z"  horiz-adv-x="1024" />

    
    <glyph glyph-name="close" unicode="&#59923;" d="M521.693867 446.702933L111.4112 856.9856a51.2 51.2 0 1 1-72.430933-72.362667l410.282666-410.3168-410.282666-410.3168a51.2 51.2 0 1 1 72.3968-72.3968l410.3168 410.282667 410.3168-410.282667a51.2 51.2 0 1 1 72.3968 72.362667l-410.282667 410.350933 410.282667 410.282667a51.2 51.2 0 1 1-72.3968 72.3968l-410.282667-410.282667z"  horiz-adv-x="1024" />

    
    <glyph glyph-name="set" unicode="&#58961;" d="M979.269687 469.445149l-31.878413 11.478445a106.464557 106.464557 0 0 0-63.764741 59.292106 106.508096 106.508096 0 0 0 0 86.709757l14.668661 30.60391a63.756825 63.756825 0 0 1-12.752948 72.690222l-33.794126 33.786209a63.760783 63.760783 0 0 1-72.686263 12.756906l-30.60391-14.660745a106.456641 106.456641 0 0 0-86.713715 0 106.460599 106.460599 0 0 0-59.296064 63.756826l-7.013726 28.054902A63.752867 63.752867 0 0 1 535.497169 896h-47.180368a63.752867 63.752867 0 0 1-59.933315-42.078396l-11.478445-31.886329a106.492264 106.492264 0 0 0-59.296064-63.756825 106.516012 106.516012 0 0 0-86.713715 0l-30.60391 14.668661a63.764741 63.764741 0 0 1-72.690222-12.756906l-33.790167-33.794126a63.752867 63.752867 0 0 1-12.752948-72.682306l14.664703-30.599951a106.456641 106.456641 0 0 0 0-86.713715 106.448725 106.448725 0 0 0-63.760784-59.300022l-31.878412-11.474487A63.752867 63.752867 0 0 1 1.828635 409.51975v-47.180367a63.764741 63.764741 0 0 1 42.719606-59.941232l31.878413-11.474487a106.472473 106.472473 0 0 0 63.756825-59.296064 106.484347 106.484347 0 0 0 0-86.713715l-14.664703-30.599952a63.752867 63.752867 0 0 1 12.752948-72.686264l33.790167-33.790167a63.764741 63.764741 0 0 1 72.690222-12.756906l30.60391 14.668661a106.516012 106.516012 0 0 0 86.713715 0 106.472473 106.472473 0 0 0 59.296064-63.760783l11.478445-31.882371a63.748909 63.748909 0 0 1 59.933316-42.078396h47.180367a63.756825 63.756825 0 0 1 59.937274 42.078396l11.478445 31.245119a107.121599 107.121599 0 0 0 59.929357 63.760783 105.213802 105.213802 0 0 0 85.439212 0l31.245119-14.664703a63.756825 63.756825 0 0 1 72.686264 12.74899l33.794126 33.794126a63.756825 63.756825 0 0 1 12.756906 72.682306l-14.668661 30.603909a106.527886 106.527886 0 0 0 0 86.076464 106.472473 106.472473 0 0 0 63.764741 59.296064l31.878413 11.478445a63.752867 63.752867 0 0 1 33.794125 61.211777v47.180367a63.764741 63.764741 0 0 1-42.723564 59.925399z m-279.90782-121.141134c-18.812776-94.083669-104.406353-159.669129-200.136585-153.359942-95.738148 6.309187-171.986688 82.553768-178.291916 178.291916-6.309187 95.73419 59.28419 181.331725 153.359942 200.136585a191.262559 191.262559 0 0 0 225.068559-225.068559z m0 0"  horiz-adv-x="1024" />

    
    <glyph glyph-name="down" unicode="&#58919;" d="M459.32088889 114.91555555000002L26.28266667 547.8399999999999c-29.01333333 29.01333333-29.01333333 76.23111111 0 105.13066667 29.01333333 29.01333333 76.23111111 29.01333333 105.13066666 0l380.47288889-380.35911112 380.58666667 380.4728889c14.10844445 14.10844445 32.768 21.84533333 52.56533333 21.84533333s38.57066667-7.73688889 52.56533333-21.84533333 21.84533333-32.768 21.84533334-52.67911112c0-19.79733333-7.73688889-38.57066667-21.84533334-52.56533333L564.56533333 114.91555555000002c-14.10844445-14.10844445-32.768-21.84533333-52.56533333-21.84533333-19.91111111-0.11377778-38.57066667 7.73688889-52.67911111 21.84533333z"  horiz-adv-x="1024" />

    
    <glyph glyph-name="left" unicode="&#58881;" d="M512 810.666667A426.666667 426.666667 0 1 0 85.333333 384 426.666667 426.666667 0 0 0 512 810.666667m0 85.333333a512 512 0 1 1 512-512A512 512 0 0 1 512 896zM360.96 414.293333l198.826667 198.826667a42.666667 42.666667 0 1 0 60.16-60.16L451.84 384l168.533333-168.533333a42.666667 42.666667 0 0 0-60.16-60.16l-199.253333 198.4a42.666667 42.666667 0 0 0 0 60.586666z"  horiz-adv-x="1024" />

    
    <glyph glyph-name="radar" unicode="&#58908;" d="M192.192 372.88533299999995c4.373333 0.021333 128.064 0.896 128.128 0.128a192.021333 192.021333 0 0 1 180.309333-180.693333c1.685333-0.085333 0.384-127.936 0.384-127.936h23.189334s-1.216 127.914667 0.213333 128a192.021333 192.021333 0 0 1 179.264 180.48c0.042667 0.725333 114.922667 0.106667 128.128 0.021333C825.962667 201.301333 685.013333 64 512 64S198.058667 201.301333 192.192 372.88533299999995z m-0.128 4.650667a326.485333 326.485333 0 0 0 0 12.458667v-12.458667z m0.128 17.514667c5.696 167.957333 140.842667 303.104 308.821333 308.757333 0.042667-11.562667 0.405333-128.085333 0-128.128a192.021333 192.021333 0 0 1-180.693333-180.650667c-0.042667-0.597333-123.797333 0.341333-128.128 0.021334zM524.202667 703.765333c167.637333-6.272 302.293333-141.546667 307.626666-309.44-13.077333-0.042667-128.085333-0.426667-128.106666 0a192.021333 192.021333 0 0 1-179.52 181.290667c-0.128 0 0 116.330667 0 128.149333zM512-128C229.226667-128 0 101.22666700000002 0 384S229.226667 896 512 896s512-229.226667 512-512-229.226667-512-512-512zM42.453333 373.24800000000005s128.384 0.085333 128.384-0.384c5.76-179.690667 150.421333-324.330667 330.154667-330.026667 0.362667 0-0.405333-128.256 0.149333-128.256h22.762667s-0.341333 128.277333 0.106667 128.298667c179.370667 6.186667 323.605333 150.826667 329.173333 330.368 0 0.234667 129.130667 0 129.130667 0v21.333333s-129.130667-0.128-129.152 0c-5.461333 179.648-149.76 324.394667-329.258667 330.538667-0.085333 0 0 128.917333 0 128.917333h-22.762667c-0.106667-1.664 0.170667-128.853333 0-128.853333-179.882667-5.632-324.693333-150.442667-330.304-330.304 0-0.512-128.362667 0-128.362666 0v-21.632z m458.453334-0.149333V394.88s-159.274667-0.576-159.232 0a170.688 170.688 0 0 0 159.232 159.424c0.64 0.042667 0-159.424 0-159.424h23.701333s-1.493333 159.445333 0 159.317333a170.688 170.688 0 0 0 157.738667-159.488c0.042667-0.896-157.738667 0.170667-157.738667 0.170667v-21.461333s157.76 0.384 157.738667 0a170.688 170.688 0 0 0-157.653334-159.616c-0.896-0.064-0.085333 181.077333-0.085333 181.077333H500.906667s1.322667-181.269333 0-181.184a170.688 170.688 0 0 0-159.232 159.402667c-0.042667 0.853333 159.232 0 159.232 0zM352 554.666667a32 32 0 1 1 0 64 32 32 0 0 1 0-64z m0-576a32 32 0 1 1 0 64 32 32 0 0 1 0-64z m256 448a32 32 0 1 1 0 64 32 32 0 0 1 0-64z"  horiz-adv-x="1024" />

    
    <glyph glyph-name="network1" unicode="&#58962;" d="M948.90666667 748.08888889c0 80.30435555-65.3312 145.63555555-145.63555556 145.63555556s-145.63555555-65.3312-145.63555556-145.63555556c0-53.78730667 29.33191111-100.82304 72.81777778-126.04529778v-120.22215111l-218.45333333-109.22666667-218.45333333 109.22666667v120.22215111c43.48586667 25.22225778 72.81777778 72.25799111 72.81777778 126.04529778 0 80.30435555-65.3312 145.63555555-145.63555556 145.63555556S75.09333333 828.39324445 75.09333333 748.08888889c0-53.78730667 29.33191111-100.82304 72.81777778-126.04529778v-210.23175111l291.27111111-145.63555555v-120.22215112c-43.48586667-25.22225778-72.81777778-72.25799111-72.81777777-126.04529778 0-80.30435555 65.3312-145.63555555 145.63555555-145.63555555s145.63555555 65.3312 145.63555555 145.63555555c0 53.78730667-29.33191111 100.82304-72.81777777 126.04529778v120.22215112l291.27111111 145.63555555v210.23175111c43.48586667 25.22225778 72.81777778 72.25799111 72.81777778 126.04529778zM220.72888889 820.90666667c40.21589333 0 72.81777778-32.60188445 72.81777778-72.81777778s-32.60188445-72.81777778-72.81777778-72.81777778-72.81777778 32.60188445-72.81777778 72.81777778 32.60188445 72.81777778 72.81777778 72.81777778z m291.27111111-873.81333334c-40.21589333 0-72.81777778 32.60188445-72.81777778 72.81777778s32.60188445 72.81777778 72.81777778 72.81777778 72.81777778-32.60188445 72.81777778-72.81777778-32.60188445-72.81777778-72.81777778-72.81777778z m291.27111111 728.17777778c-40.21589333 0-72.81777778 32.60188445-72.81777778 72.81777778s32.60188445 72.81777778 72.81777778 72.81777778 72.81777778-32.60188445 72.81777778-72.81777778-32.60188445-72.81777778-72.81777778-72.81777778z"  horiz-adv-x="1024" />

    
    <glyph glyph-name="problem1" unicode="&#58882;" d="M1024 384C1024 666.763636 794.763636 896 512 896S0 666.763636 0 384s229.236364-512 512-512 512 229.236364 512 512M543.418182 138.472727c-10.472727-9.309091-22.109091-13.963636-36.072727-13.963636-13.963636 0-25.6 4.654545-36.072728 13.963636-10.472727 9.309091-15.127273 22.109091-15.127272 38.4 0 13.963636 4.654545 26.763636 15.127272 36.072728 10.472727 9.309091 22.109091 15.127273 37.236364 15.127272 13.963636 0 26.763636-4.654545 36.072727-15.127272 9.309091-9.309091 15.127273-22.109091 15.127273-36.072728-1.163636-17.454545-5.818182-29.090909-16.290909-38.4z m128 317.672728c-8.145455-15.127273-17.454545-26.763636-27.927273-38.4-10.472727-10.472727-30.254545-29.090909-58.181818-53.527273-8.145455-6.981818-13.963636-12.8-18.618182-18.618182-4.654545-5.818182-8.145455-10.472727-10.472727-15.127273s-3.490909-9.309091-5.818182-12.8c-1.163636-4.654545-3.490909-12.8-5.818182-23.272727-4.654545-23.272727-17.454545-36.072727-40.727273-36.072727-11.636364 0-22.109091 3.490909-30.254545 11.636363-8.145455 8.145455-11.636364 19.781818-11.636364 34.909091 0 19.781818 3.490909 36.072727 9.309091 50.036364 5.818182 13.963636 13.963636 26.763636 23.272728 37.236364 9.309091 10.472727 23.272727 23.272727 39.563636 38.4 15.127273 12.8 25.6 22.109091 31.418182 29.090909 6.981818 6.981818 11.636364 13.963636 16.290909 22.109091 4.654545 8.145455 6.981818 16.290909 6.981818 25.6 0 18.618182-6.981818 33.745455-20.945455 46.545454-13.963636 12.8-31.418182 18.618182-52.363636 18.618182-25.6 0-44.218182-5.818182-55.854545-18.618182s-22.109091-31.418182-30.254546-55.854545c-8.145455-25.6-22.109091-38.4-44.218182-38.4-12.8 0-23.272727 4.654545-32.581818 13.963636-9.309091 9.309091-12.8 18.618182-12.8 29.090909 0 22.109091 6.981818 44.218182 20.945455 66.327273 13.963636 22.109091 33.745455 40.727273 60.509091 55.854545 26.763636 15.127273 58.181818 22.109091 93.090909 22.109091 32.581818 0 62.836364-5.818182 87.272727-18.618182 25.6-12.8 45.381818-29.090909 59.345455-50.036363 13.963636-20.945455 20.945455-44.218182 20.945454-68.654546 1.163636-22.109091-2.327273-39.563636-10.472727-53.527272z m0 0"  horiz-adv-x="1024" />

    
    <glyph glyph-name="right" unicode="&#58901;" d="M245.05002667-125.72444444999996c11.48773262 0 23.09197369 4.25255822 32.78547626 12.75767467l507.06805192 452.90910151c12.32659342 11.02752427 19.5035136 27.63580302 19.5035136 45.30430862 0 17.53452089-7.17692018 34.27678435-19.5035136 45.17032392L279.99090915 880.94346809c-22.49778062 20.05692871-55.39976533 16.07816533-73.46439964-8.90124516-18.07045973-24.97941049-14.47617422-61.51645867 8.01578098-81.5792128l454.18486898-405.21636978-456.45678365-407.7387776c-22.49778062-20.06275413-26.08624071-56.59980231-8.01578097-81.5792128 10.40420409-14.21403022 25.4803968-21.6530944 40.79543182-21.6530944z"  horiz-adv-x="1024" />

    
    <glyph glyph-name="close1" unicode="&#58887;" d="M512.899824 896C230.155048 896 0.999805 666.844757 0.999805 384.09998s229.155243-511.90002 511.900019-511.900019 511.90002 229.155243 511.90002 511.900019S795.644601 896 512.899824 896z m0-933.417692c-232.854521 0-421.517672 188.763132-421.517672 421.517672S280.045304 805.617653 512.899824 805.617653c232.854521 0 421.517672-188.763132 421.517673-421.517673S745.754345-37.417692 512.899824-37.417692z m185.863699 606.881469l-0.499903 0.499902c-16.796719 16.796719-51.190002 9.498145-76.884983-16.196837L512.899824 445.28803 404.421012 553.766842c-25.694981 25.694981-60.088264 32.893575-76.884984 16.196837l-0.499902-0.499902c-16.796719-16.796719-9.498145-51.190002 16.196836-76.884984l108.478813-108.478813-108.478813-108.478812c-25.694981-25.694981-32.893575-60.088264-16.196836-76.884984l0.499902-0.499902c16.796719-16.796719 51.190002-9.498145 76.884984 16.196837L512.899824 322.911931l108.478813-108.478812c25.694981-25.694981 60.088264-32.893575 76.884983-16.196837l0.499903 0.499902c16.796719 16.796719 9.498145 51.190002-16.196837 76.884984L574.087873 384.09998l108.478813 108.478813c25.694981 25.694981 32.893575 60.088264 16.196837 76.884984z"  horiz-adv-x="1025" />

    
    <glyph glyph-name="notice" unicode="&#58991;" d="M558.08 773.9733333300001L304.32 623.1466666700001v-480l253.76-150.82666667c48-27.41333333 89.17333333-6.82666667 89.17333333 48V725.9733333300001c0 54.82666667-41.17333333 82.24-89.17333333 48z m-528-253.76v-274.34666666c0-54.82666667 48-102.82666667 102.82666667-102.82666667H235.73333333v480h-102.82666666c-54.82666667 0.10666667-102.82666667-47.89333333-102.82666667-102.82666667z m925.76-102.82666666H818.66666667c-20.58666667 0-34.24-13.76-34.24-34.24 0-20.58666667 13.76-34.24 34.24-34.24h137.17333333c20.58666667 0 34.24 13.76 34.24 34.24 0.10666667 20.48-13.65333333 34.24-34.24 34.24z m-20.58666667-349.76l-116.58666666 68.58666666c-13.76 6.82666667-34.24 6.82666667-48-13.76-6.82666667-13.76-6.82666667-34.24 13.76-48l116.58666666-68.58666666c13.76-6.82666667 34.24-6.82666667 48 13.76 6.82666667 13.76 0 41.17333333-13.76 48zM811.84 629.9733333300001l116.58666667 68.58666667c13.76 6.82666667 20.58666667 27.41333333 13.76 48-6.82666667 13.76-27.41333333 20.58666667-41.17333334 13.76l-116.58666666-68.58666667c-13.76-6.82666667-20.58666667-27.41333333-13.76-48 6.82666667-13.76 27.41333333-20.58666667 41.17333333-13.76z m0 0"  horiz-adv-x="1024" />

    
    <glyph glyph-name="performance" unicode="&#59006;" d="M7.314286-3.657143H1024v-58.514286H7.314286v58.514286z m-7.314286 263.314286l124.342857 80.457143 234.057143-117.028572L629.028571 603.428571l263.314286-197.485714 131.657143 7.314286v-36.571429l-146.285714-7.314285-241.371429 175.542857-256-373.028572-248.685714 124.342857-131.657143-87.771428v51.2zM899.657143 457.142857h58.514286V654.628571c0 14.628571-14.628571 29.257143-29.257143 29.257143h-95.085715c-14.628571 7.314286-29.257143-7.314286-29.257142-21.942857V530.285714l95.085714-73.142857z m-36.571429-146.285714l-58.514285 43.885714v-307.2h153.6V310.857143h-95.085715z m-248.685714 358.4l95.085714-73.142857V852.114286c0 14.628571-14.628571 29.257143-29.257143 29.257143H585.142857c-14.628571 0-29.257143-14.628571-29.257143-29.257143v-270.628572l58.514286 87.771429z m29.257143-197.485714l-87.771429-124.342858v-299.885714h153.6V420.571429l-65.828571 51.2z m-256-365.714286l-80.457143 36.571428v-95.085714h153.6v168.228572l-73.142857-109.714286z m-36.571429 175.542857l109.714286 160.914286v21.942857c0 14.628571-14.628571 29.257143-29.257143 29.257143h-95.085714c-14.628571 0-29.257143-14.628571-29.257143-29.257143v-160.914286l43.885714-21.942857z m-226.742857 117.028571l87.771429-43.885714v219.428572c0 14.628571-14.628571 29.257143-29.257143 29.257142h-95.085714c-14.628571 0-29.257143-14.628571-29.257143-29.257142v-219.428572l65.828571 43.885714z m7.314286-168.228571l-73.142857-43.885714V47.542857h153.6v146.285714l-80.457143 36.571429z"  horiz-adv-x="1024" />

    
    <glyph glyph-name="group" unicode="&#58955;" d="M1013.703 202.65499999999997c6.865-6.865 10.297-14.874 10.297-24.027v-205.944c0-9.916-3.432-18.115-10.297-24.599-6.865-6.483-15.255-9.725-25.171-9.725H782.588c-9.153 0-17.162 3.242-24.027 9.725-6.865 6.483-10.297 14.683-10.297 24.599V178.62800000000004c0 6.102 1.526 11.823 4.577 17.162s7.246 9.534 12.586 12.586 11.06 4.577 17.162 4.577h77.801V349.10400000000004c0 4.577-1.144 8.772-3.432 12.586s-5.339 6.865-9.153 9.153-8.009 3.432-12.585 3.432H543.464v-161.323h77.801c9.153 0 17.162-3.432 24.027-10.297s10.297-14.874 10.297-24.027v-205.944c0-6.102-1.526-11.823-4.577-17.162s-7.246-9.534-12.585-12.585-11.06-4.577-17.162-4.577H415.321c-6.102 0-11.823 1.526-17.162 4.577s-9.725 7.246-13.158 12.585-5.149 11.06-5.149 17.162V178.62800000000004c0 9.153 3.432 17.162 10.297 24.027s15.255 10.297 25.171 10.297h76.657V374.275H188.782c-7.628 0-13.92-2.479-18.878-7.437s-7.437-10.869-7.437-17.734v-136.152h77.801c9.916 0 18.115-3.432 24.599-10.297s9.725-14.874 9.725-24.027v-205.944c0-9.916-3.242-18.115-9.725-24.599-6.483-6.483-14.683-9.725-24.599-9.725H34.324c-3.814 0-7.437 0.572-10.869 1.716-3.432 1.144-6.483 2.67-9.153 4.577-2.67 1.907-5.149 4.386-7.437 7.437-2.288 3.051-4.004 6.293-5.149 9.725C0.572-34.75300000000004 0-31.129999999999995 0-27.31600000000003V178.62800000000004c0 3.051 0.381 6.102 1.144 9.153s1.907 5.721 3.432 8.009 3.432 4.577 5.721 6.865 4.577 4.195 6.865 5.721 4.958 2.67 8.009 3.432 6.102 1.144 9.153 1.144h77.801V400.59c0 6.865 2.479 12.776 7.437 17.734s10.869 7.437 17.734 7.437h354.682V553.904h-76.657c-9.916 0-18.306 3.432-25.171 10.297s-10.297 14.874-10.297 24.027V794.172c0 9.916 3.432 18.306 10.297 25.171s15.255 10.297 25.171 10.297h205.944c6.102 0 11.823-1.716 17.162-5.149 5.339-3.432 9.534-7.818 12.585-13.158 3.051-5.339 4.577-11.06 4.577-17.162v-205.944c0-9.153-3.432-17.162-10.297-24.027s-14.874-10.297-24.027-10.297h-77.801V425.76H885.56c7.628 0 13.92-2.479 18.878-7.437s7.437-10.869 7.437-17.734v-187.638h76.657c9.916 0.001 18.306-3.431 25.171-10.296z"  horiz-adv-x="1024" />

    
    <glyph glyph-name="BIN" unicode="&#58918;" d="M354.40128 896c-87.04 0-157.44-70.55872-157.44-157.59872v-275.68128H78.72c-21.6576 0-39.36256-17.69984-39.36256-39.36256v-236.31872c0-21.6576 17.69984-39.35744 39.36256-39.35744h118.24128v-118.08256c0-87.04 70.4-157.59872 157.44-157.59872h472.63744c87.04 0 157.59872 70.55872 157.59872 157.59872V580.9664c0 41.74848-38.9888 81.93024-107.52 149.27872l-29.11744 29.12256L818.87744 788.48C751.5392 857.0112 711.39328 896 669.59872 896H354.4064z m0-78.72h287.20128c28.35456-7.0912 27.99616-42.1376 27.99616-76.8v-120.16128c0-21.6576 17.69984-39.35744 39.36256-39.35744h118.07744c39.38816 0 78.87872 0.0256 78.87872-39.36256v-512c0-43.32032-35.55328-78.87872-78.87872-78.87872H354.4064c-43.32544 0-78.72 35.5584-78.72 78.87872v118.08256h393.91744c21.66272 0 39.36256 17.69472 39.36256 39.35744V423.35744c0 21.66272-17.69984 39.36256-39.36256 39.36256H275.68128V738.40128c0 43.32032 35.39456 78.87872 78.72 78.87872zM155.0336 388.63872h48c23.04 0 39.04-3.84 48-11.52 9.6-7.04 14.40256-17.92 14.40256-32.64 0-21.76-11.84256-34.56-35.52256-38.4v-0.95744c26.88-4.48 40.32-18.24256 40.32-41.28256 0-15.36-5.12-27.83744-15.36-37.43744-9.6-8.96-23.35744-13.44-41.27744-13.44H155.0336V388.63872z m138.24 0h64.32256v-12.47744l-21.12-4.80256v-141.11744l21.12-4.80256v-12.47744H293.2736v12.47744l21.12 4.80256V371.3536l-21.12 4.80256v12.47744z m97.92 0h25.92256l85.43744-144.95744h0.96256c-1.28 21.12-1.92 37.43744-1.92 48.95744v96h21.12v-175.67744H496.7936l-86.4 144.95744h-0.95744c1.28-23.04 1.92-39.68 1.92-49.92v-95.03744h-20.16256V388.63872z m-214.07744-19.2v-55.68h29.75744c12.8 0 21.76 2.24256 26.88 6.72256 5.76 5.12 8.64256 12.47744 8.64256 22.07744 0 8.96-3.2 15.68256-9.6 20.16256s-16 6.71744-28.8 6.71744h-26.88z m0-73.91744v-63.36h31.67744c12.8 0 22.08256 2.56 27.84256 7.68 6.4 5.76 9.6 14.08 9.6 24.96 0 10.24-3.2 17.92-9.6 23.04s-16 7.68-28.8 7.68h-30.72z"  horiz-adv-x="1024" />

    
    <glyph glyph-name="caiguangmoshi" unicode="&#58928;" d="M816.21649408 510.2174811c0 12.94538297 3.23634517 22.65441963 3.23634517 35.5998026 0 168.28997518-139.16286407 307.45283925-307.45283925 307.45283925S204.54716075 714.10725888 204.54716075 545.8172837v-35.5998026c-113.27209927-45.30883925-194.18074112-158.58093853-194.18074112-288.0347648 0-168.28997518 139.16286407-307.45283925 307.45283925-307.45283925 71.19960519 0 139.16286407 25.89076594 194.18074112 67.96325888 51.78153074-42.07249408 119.74478962-67.96325888 194.18074112-67.96325888 168.28997518 0 307.45283925 139.16286407 307.45283925 307.45283925 0 129.45382741-77.67229667 242.72592555-197.41708629 288.0347648zM706.18074112 11.820247040000027c-116.50844445 0-210.36246926 93.85402482-210.36246926 210.36246926v3.23634517 3.23634632c0 25.89076594-22.65441963 48.54518557-48.54518557 48.54518442s-48.54518557-22.65441963-48.54518556-48.54518442v-6.47269149c0-61.49056739 19.41807445-116.50844445 48.54518556-165.05363001-35.59980259-29.12711111-80.90864185-45.30883925-129.45382741-45.30883925-116.50844445 0-210.36246926 93.85402482-210.36246926 210.36246926s93.85402482 210.36246926 210.36246926 210.36246927c48.54518557 0 93.85402482-16.18172814 129.45382741-42.07249408h3.23634632c6.47269149-6.47269149 16.18172814-9.70903666 29.1271111-9.70903666 25.89076594 0 48.54518557 22.65441963 48.54518443 48.54518442 0 16.18172814-9.70903666 32.36345629-22.65441963 42.07249408-51.78153074 38.83614777-116.50844445 61.49056739-184.47170332 61.4905674h-16.18172814v16.18172928c0 116.50844445 93.85402482 210.36246926 210.36246812 210.36246926s210.36246926-93.85402482 210.36246926-210.36246926c0-80.90864185-45.30883925-152.10824704-116.50844444-187.70804964-19.41807445-9.70903666-32.36345629-25.89076594-32.36345628-48.54518556 0-25.89076594 22.65441963-48.54518557 48.54518556-48.54518443 3.23634517 0 9.70903666 0 12.94538183 3.23634517 3.23634517 0 6.47269149 0 6.47269149 3.23634518 64.72691371 29.12711111 113.27209927 80.90864185 145.63555555 145.63555556 74.43595037-32.36345629 126.2174811-106.79940779 126.21748224-190.94439482 0-119.74478962-93.85402482-213.59881443-210.36246926-213.59881443z"  horiz-adv-x="1024" />

    
    <glyph glyph-name="baiguangmoshi" unicode="&#58931;" d="M512 869.45185173C245.0014816 869.45185173 26.54814827 650.9985184 26.54814827 384s218.45333333-485.45185173 485.45185173-485.45185173 485.45185173 218.45333333 485.45185173 485.45185173S778.9985184 869.45185173 512 869.45185173z m0-910.22222186c-233.62370347 0-424.77037013 191.14666667-424.77037013 424.77037013S278.37629653 808.77037013 512 808.77037013v-849.54074026z"  horiz-adv-x="1024" />

    
    <glyph glyph-name="check" unicode="&#59583;" d="M898.63543088 881.1026963H125.36456912c-60.75699579 0-110.46726541-49.71026963-110.46726542-110.46726542v-773.27086176c0-60.75699579 49.71026963-110.46726541 110.46726542-110.46726542h773.27086176c60.75699579 0 110.46726541 49.71026963 110.46726542 110.46726542V770.6354308800001c0 60.75699579-49.71026963 110.46726541-110.46726542 110.46726542z m-497.10269629-773.27086048l-276.16816547 276.16816418 77.32708694 77.32708566 198.84107853-198.84107852 419.77560935 419.77561064L898.63543088 604.93453212l-497.10269629-497.1026963z"  horiz-adv-x="1024" />

    
    <glyph glyph-name="mark" unicode="&#58880;" d="M593.92 841.65973333l87.01724445-183.86488888a91.02222222 91.02222222 0 0 1 68.4487111-51.70062223l194.42346667-29.4912a96.11946667 96.11946667 0 0 0 50.60835556-162.01955555l-140.53831111-143.08693334a97.57582222 97.57582222 0 0 1-26.2144-84.10453333l33.13208888-201.70524445a91.7504 91.7504 0 0 0-132.16426666-100.12444444l-174.03448889 95.0272a87.74542222 87.74542222 0 0 1-84.83271111 0l-174.03448889-95.0272a91.7504 91.7504 0 0 0-132.16426667 100.12444444l33.13208889 201.70524445a97.57582222 97.57582222 0 0 1-26.2144 84.10453333l-140.53831111 143.08693334a96.11946667 96.11946667 0 0 0 50.60835556 162.01955555l194.42346666 29.4912a91.02222222 91.02222222 0 0 1 68.44871112 51.70062223l87.01724444 183.86488888a89.56586667 89.56586667 0 0 0 163.47591111 0z"  horiz-adv-x="1024" />

    
    <glyph glyph-name="association" unicode="&#58907;" d="M464.448 3.268l-51.843-50.181c-47.102-45.577-109-68.34-170.849-68.34-61.864 0-123.704 22.77-170.783 68.32C25.179-2.628 0 56.275 0 118.946c0 62.72 25.188 121.641 70.948 165.968l190.736 184.521c118.58 114.703 254.715 131.185 346.866 42.054 24.835-24.056 24.994-63.241 0.311-87.473-24.685-24.265-64.834-24.424-89.736-0.317-54.183 52.395-128.519-3.867-168.048-42.106L160.34 197.065c-21.59-20.851-33.422-48.606-33.422-78.111 0-29.473 11.833-57.21 33.422-78.077 44.888-43.448 117.944-43.388 162.832 0l51.841 50.198c24.87 24.038 65.052 23.91 89.736-0.321 24.692-24.248 24.559-63.434-0.301-87.486zM953.026 475.961L749.55 279.144c-62.88-60.85-128.946-91.581-191.533-91.581-51.104 0-99.892 20.49-142.575 61.823-24.895 24.08-25.044 63.257-0.32 87.478 24.692 24.248 64.841 24.409 89.71 0.329 18.612-18.016 62.302-60.279 155.292 29.739l203.535 196.844c21.539 20.868 33.407 48.638 33.407 78.129 0 29.48-11.852 57.208-33.466 78.111-40.511 39.186-102.636 58.233-150.1 12.287L648.952 669.8c-24.877-24.055-65.035-23.921-89.744 0.318-24.709 24.256-24.541 63.417 0.344 87.497l64.583 62.503c91.564 88.628 229.938 83.419 328.884-12.313C998.779 763.487 1024 704.59 1024 641.912c0-62.72-25.212-121.642-70.974-165.951z"  horiz-adv-x="1024" />

    
    <glyph glyph-name="plug" unicode="&#59121;" d="M848 608H176c-26.51 0-48-21.49-48-48v-160c0-26.51 21.49-48 48-48h16c0-160.416 118.04-293.256 272-316.416V-128h96v163.584c153.958 23.16 272 156 272 316.416h16c26.51 0 48 21.49 48 48v160c0 26.51-21.49 48-48 48z m-48-160h-64v-96c0-123.796-100.184-224-224-224-123.796 0-224 100.184-224 224v96H224v64h576v-64z m-144 192V848c0 26.51 21.49 48 48 48s48-21.49 48-48v-208h-96z m-384 0V848C272 874.51 293.49 896 320 896s48-21.49 48-48v-208H272z"  horiz-adv-x="1024" />

    
    <glyph glyph-name="send" unicode="&#59599;" d="M972.21023 784.9c35.7 15.3 56.2-5.1 51.1-40.9L854.71023 13.899999999999977c-10.2-35.7-40.9-46-71.5-25.5L548.31023 151.70000000000005 430.91023 39.39999999999998c-25.5-25.5-61.3-15.3-71.5 20.4l-91.9 255.3-224.7 66.4c-56.2 15.3-56.2 40.9-5.1 61.3l934.5 342.1z m-143-163.4c25.5 25.5 25.5 30.6-5.1 10.2l-505.6-291c-10.2-5.1-10.2-15.3-10.2-20.4l76.6-219.6c5.1-15.3 10.2-15.3 15.3 0L415.61023 259c0 10.2 5.1 20.4 15.3 25.5l398.3 337z"  horiz-adv-x="1024" />

    


  </font>
</defs>
</svg>
